<?xml version="1.0" standalone="no"?>
<!DOCTYPE svg PUBLIC "-//W3C//DTD SVG 20010904//EN"
 "http://www.w3.org/TR/2001/REC-SVG-20010904/DTD/svg10.dtd">
<svg version="1.0" xmlns="http://www.w3.org/2000/svg"
 width="890.000000pt" height="890.000000pt" viewBox="0 0 890.000000 890.000000"
 preserveAspectRatio="xMidYMid meet">
<metadata>
Created by potrace 1.14, written by Peter Selinger 2001-2017
</metadata>
<g transform="translate(0.000000,890.000000) scale(0.100000,-0.100000)"
fill="#000000" stroke="none">
<path d="M1767 8700 c-38 -44 -96 -241 -121 -405 -2 -16 -7 -48 -10 -70 -26
-171 -35 -231 -40 -280 -2 -16 -5 -30 -5 -30 -1 0 -4 -17 -6 -38 -8 -74 -55
-248 -85 -312 -34 -73 -97 -143 -155 -173 -22 -11 -74 -30 -115 -42 -41 -13
-81 -27 -87 -33 -7 -5 -13 -7 -13 -4 0 10 -129 -55 -192 -96 -31 -20 -86 -66
-121 -101 -53 -52 -75 -85 -127 -190 -34 -69 -66 -126 -71 -126 -5 0 -9 -6 -9
-12 0 -7 -37 -48 -82 -92 l-83 -80 28 -7 c16 -4 34 -6 40 -3 21 7 77 -34 79
-58 0 -13 2 -34 2 -48 3 -38 -28 -144 -79 -270 -25 -63 -47 -126 -48 -140 -2
-14 -6 -31 -10 -37 -10 -15 -1 -209 13 -273 17 -83 20 -109 24 -185 3 -38 5
-74 6 -80 1 -5 2 -12 1 -15 -1 -3 -3 -41 -5 -85 -2 -44 -7 -109 -12 -145 -11
-80 -10 -239 1 -300 4 -25 7 -53 7 -63 0 -9 2 -17 6 -17 4 0 8 -10 8 -22 2
-27 4 -34 29 -113 10 -33 28 -76 38 -95 11 -19 29 -53 40 -74 19 -35 67 -92
179 -209 21 -22 38 -44 38 -49 0 -5 5 -6 10 -3 6 3 10 3 10 -2 0 -4 28 -38 63
-75 154 -165 238 -256 259 -283 12 -16 33 -40 46 -54 13 -14 38 -43 56 -64 17
-22 39 -49 50 -60 104 -122 149 -229 171 -411 3 -21 7 -42 10 -46 3 -5 1 -11
-5 -15 -6 -4 -7 -12 -3 -18 4 -6 8 -75 10 -152 2 -77 5 -149 7 -160 3 -11 5
-23 5 -27 3 -23 44 -48 80 -48 22 0 43 -4 46 -10 3 -5 -11 -26 -32 -46 l-37
-36 29 -24 c17 -13 35 -24 40 -24 16 0 122 -57 163 -87 132 -98 291 -243 371
-338 32 -39 71 -106 71 -125 0 -45 258 -286 396 -370 21 -14 44 -28 49 -33 25
-21 195 -127 205 -127 5 0 10 -3 10 -8 0 -4 20 -18 45 -32 25 -14 45 -28 45
-31 0 -4 8 -9 18 -12 17 -6 73 -38 82 -47 3 -3 30 -21 60 -40 128 -79 221
-171 295 -291 42 -69 145 -190 145 -173 0 5 5 1 11 -8 5 -10 16 -18 24 -18 7
0 15 -4 17 -8 2 -4 23 -20 48 -34 74 -43 103 -77 97 -115 l-6 -32 37 12 c58
19 101 11 190 -34 31 -16 65 -29 74 -29 9 0 19 -4 22 -9 3 -4 25 -12 48 -16
24 -4 50 -9 58 -11 16 -4 56 -10 135 -21 28 -4 85 -7 127 -7 43 -1 78 -3 78
-6 0 -3 35 -5 78 -5 42 0 82 -2 87 -5 6 -2 21 -5 35 -6 36 -2 170 -45 170 -55
0 -5 3 -8 8 -7 14 3 135 -62 152 -82 5 -6 201 -137 235 -157 11 -6 47 -25 80
-41 33 -17 80 -48 105 -71 38 -35 93 -66 195 -111 27 -12 151 -46 200 -55 230
-42 978 -47 1470 -10 206 15 198 16 247 -9 74 -37 105 -27 83 27 -6 14 -2 17
28 17 20 0 39 5 42 11 5 7 14 5 30 -5 25 -16 100 -27 112 -16 4 4 45 20 91 35
45 14 82 31 82 36 0 6 4 8 8 5 9 -5 152 66 192 96 41 30 13 36 -55 12 -37 -13
-63 -20 -60 -14 3 5 13 10 21 10 8 0 14 5 14 10 0 6 4 10 10 10 5 0 19 8 31
18 41 34 171 163 168 166 -2 1 -26 9 -54 16 -27 7 -54 16 -60 19 -5 3 -14 6
-20 7 -5 1 -44 11 -85 23 -41 11 -95 23 -120 27 -74 10 -247 11 -303 2 -51 -9
-238 -12 -267 -5 -57 14 -80 24 -133 53 -136 78 -331 161 -442 190 -71 19
-147 36 -175 39 -54 7 -179 35 -208 47 -15 6 -31 12 -37 12 -5 1 -17 17 -28
36 -22 40 -79 87 -191 154 -110 67 -488 255 -513 256 -4 1 -26 9 -48 20 -22
11 -43 19 -47 20 -11 0 -148 67 -190 93 -114 69 -209 173 -195 212 9 22 -33
78 -132 175 -129 126 -257 239 -415 365 -21 17 -55 44 -76 60 -80 64 -119 94
-284 217 -269 201 -298 227 -321 291 -14 37 -22 46 -36 42 -23 -8 -36 31 -44
135 -6 79 -30 177 -66 261 -17 41 -36 88 -42 104 -7 17 -15 32 -18 35 -3 3
-16 25 -30 50 -13 25 -27 47 -30 50 -3 3 -12 16 -19 30 -22 42 -120 161 -193
234 -73 73 -147 166 -147 183 0 6 -7 16 -15 23 -9 7 -13 15 -10 18 3 3 1 10
-4 16 -10 13 -45 115 -60 176 -21 91 -42 223 -56 355 -13 130 -17 152 -32 200
-20 62 -105 216 -155 280 -4 5 -44 60 -89 120 -45 61 -107 142 -139 180 -66
82 -140 189 -140 204 0 6 -4 11 -10 11 -5 0 -10 5 -10 11 0 6 -9 23 -19 37
-10 15 -19 29 -19 32 0 3 -13 34 -30 70 -67 141 -87 236 -69 316 6 26 1 36
-28 68 -40 44 -135 226 -160 307 -10 32 -15 67 -11 82 6 24 66 100 66 84 0 -4
9 -3 21 3 16 9 26 8 45 -5 23 -15 25 -15 33 7 5 13 4 32 -1 44 -10 22 -65 53
-107 61 -62 11 -140 77 -179 151 -30 59 -45 83 -64 106 -9 12 -43 55 -76 96
-53 66 -144 160 -330 340 -35 34 -51 57 -48 68 3 9 8 37 11 62 7 65 15 120 20
149 2 14 7 46 10 71 3 25 10 70 15 100 5 30 12 75 15 100 3 25 7 59 9 75 5 32
15 113 21 180 2 22 4 40 5 40 4 0 11 171 11 255 0 90 -4 140 -15 185 -2 11 -5
23 -5 28 -1 11 -40 47 -50 47 -5 0 -20 -13 -34 -30z"/>
</g>
</svg>
